{
	"patcher" : 	{
		"fileversion" : 1,
		"appversion" : 		{
			"major" : 8,
			"minor" : 5,
			"revision" : 3,
			"architecture" : "x64",
			"modernui" : 1
		}
,
		"classnamespace" : "box",
		"rect" : [ -1576.0, -40.0, 1413.0, 929.0 ],
		"bglocked" : 0,
		"openinpresentation" : 0,
		"default_fontsize" : 12.0,
		"default_fontface" : 0,
		"default_fontname" : "Arial Bold",
		"gridonopen" : 1,
		"gridsize" : [ 15.0, 15.0 ],
		"gridsnaponopen" : 1,
		"objectsnaponopen" : 1,
		"statusbarvisible" : 2,
		"toolbarvisible" : 1,
		"lefttoolbarpinned" : 0,
		"toptoolbarpinned" : 0,
		"righttoolbarpinned" : 0,
		"bottomtoolbarpinned" : 0,
		"toolbars_unpinned_last_save" : 0,
		"tallnewobj" : 0,
		"boxanimatetime" : 200,
		"enablehscroll" : 1,
		"enablevscroll" : 1,
		"devicewidth" : 0.0,
		"description" : "",
		"digest" : "",
		"tags" : "",
		"style" : "jpatcher001",
		"subpatcher_template" : "",
		"assistshowspatchername" : 0,
		"boxes" : [ 			{
				"box" : 				{
					"id" : "obj-31",
					"maxclass" : "ezdac~",
					"numinlets" : 2,
					"numoutlets" : 0,
					"patching_rect" : [ 876.0, 540.0, 45.0, 45.0 ]
				}

			}
, 			{
				"box" : 				{
					"id" : "obj-29",
					"maxclass" : "newobj",
					"numinlets" : 2,
					"numoutlets" : 1,
					"outlettype" : [ "signal" ],
					"patching_rect" : [ 851.0, 467.0, 40.0, 22.0 ],
					"text" : "*~ 0.2"
				}

			}
, 			{
				"box" : 				{
					"id" : "obj-28",
					"maxclass" : "newobj",
					"numinlets" : 2,
					"numoutlets" : 1,
					"outlettype" : [ "signal" ],
					"patching_rect" : [ 851.0, 401.0, 46.0, 22.0 ],
					"text" : "cycle~"
				}

			}
, 			{
				"box" : 				{
					"format" : 6,
					"id" : "obj-27",
					"maxclass" : "flonum",
					"numinlets" : 1,
					"numoutlets" : 2,
					"outlettype" : [ "", "bang" ],
					"parameter_enable" : 0,
					"patching_rect" : [ 683.0, 526.0, 50.0, 22.0 ]
				}

			}
, 			{
				"box" : 				{
					"id" : "obj-24",
					"maxclass" : "newobj",
					"numinlets" : 3,
					"numoutlets" : 2,
					"outlettype" : [ "", "bang" ],
					"patching_rect" : [ 683.0, 494.0, 56.0, 22.0 ],
					"text" : "line 100."
				}

			}
, 			{
				"box" : 				{
					"id" : "obj-19",
					"maxclass" : "number",
					"numinlets" : 1,
					"numoutlets" : 2,
					"outlettype" : [ "", "bang" ],
					"parameter_enable" : 0,
					"patching_rect" : [ 760.0, 401.0, 50.0, 22.0 ]
				}

			}
, 			{
				"box" : 				{
					"id" : "obj-17",
					"maxclass" : "newobj",
					"numinlets" : 2,
					"numoutlets" : 1,
					"outlettype" : [ "" ],
					"patching_rect" : [ 683.0, 450.0, 93.0, 22.0 ],
					"text" : "pack 100. 2000"
				}

			}
, 			{
				"box" : 				{
					"id" : "obj-16",
					"maxclass" : "newobj",
					"numinlets" : 0,
					"numoutlets" : 1,
					"outlettype" : [ "" ],
					"patching_rect" : [ 760.0, 368.0, 72.0, 22.0 ],
					"text" : "r deltaTime"
				}

			}
, 			{
				"box" : 				{
					"format" : 6,
					"id" : "obj-7",
					"maxclass" : "flonum",
					"numinlets" : 1,
					"numoutlets" : 2,
					"outlettype" : [ "", "bang" ],
					"parameter_enable" : 0,
					"patching_rect" : [ 683.0, 401.0, 50.0, 22.0 ]
				}

			}
, 			{
				"box" : 				{
					"id" : "obj-1",
					"maxclass" : "newobj",
					"numinlets" : 0,
					"numoutlets" : 1,
					"outlettype" : [ "" ],
					"patching_rect" : [ 683.0, 368.0, 62.0, 22.0 ],
					"text" : "r glucose"
				}

			}
, 			{
				"box" : 				{
					"bgmode" : 0,
					"border" : 0,
					"clickthrough" : 0,
					"enablehscroll" : 0,
					"enablevscroll" : 0,
					"id" : "obj-2",
					"lockeddragscroll" : 0,
					"lockedsize" : 0,
					"maxclass" : "bpatcher",
					"name" : "Map_simpleSoni.maxpat",
					"numinlets" : 0,
					"numoutlets" : 0,
					"offset" : [ 0.0, 0.0 ],
					"patching_rect" : [ 1099.5, 617.19999934732914, 305.599994242191315, 231.0 ],
					"viewvisibility" : 1
				}

			}
, 			{
				"box" : 				{
					"id" : "obj-3",
					"maxclass" : "gain~",
					"multichannelvariant" : 0,
					"numinlets" : 1,
					"numoutlets" : 2,
					"outlettype" : [ "signal", "" ],
					"parameter_enable" : 0,
					"patching_rect" : [ 896.0, 85.0, 29.0, 121.0 ]
				}

			}
, 			{
				"box" : 				{
					"id" : "obj-6",
					"maxclass" : "newobj",
					"numinlets" : 4,
					"numoutlets" : 5,
					"outlettype" : [ "signal", "signal", "signal", "signal", "multichannelsignal" ],
					"patching_rect" : [ 903.0625, 22.0, 289.0, 22.0 ],
					"text" : "spat4"
				}

			}
, 			{
				"box" : 				{
					"bgmode" : 0,
					"border" : 0,
					"clickthrough" : 0,
					"enablehscroll" : 0,
					"enablevscroll" : 0,
					"id" : "obj-23",
					"lockeddragscroll" : 0,
					"lockedsize" : 0,
					"maxclass" : "bpatcher",
					"name" : "Map_richSoni.maxpat",
					"numinlets" : 0,
					"numoutlets" : 0,
					"offset" : [ 0.0, 0.0 ],
					"patching_rect" : [ 956.5, 589.0, 141.0, 259.19999934732914 ],
					"viewvisibility" : 1
				}

			}
, 			{
				"box" : 				{
					"id" : "obj-11",
					"maxclass" : "comment",
					"numinlets" : 1,
					"numoutlets" : 0,
					"patching_rect" : [ 464.400005757808685, 93.5, 71.153843522071838, 20.0 ],
					"text" : "A modifier"
				}

			}
, 			{
				"box" : 				{
					"id" : "obj-10",
					"maxclass" : "comment",
					"numinlets" : 1,
					"numoutlets" : 0,
					"patching_rect" : [ 697.400005757808685, 214.269234716892242, 71.153843522071838, 20.0 ],
					"text" : "OK"
				}

			}
, 			{
				"box" : 				{
					"id" : "obj-8",
					"maxclass" : "newobj",
					"numinlets" : 0,
					"numoutlets" : 1,
					"outlettype" : [ "" ],
					"patching_rect" : [ 464.400005757808685, 19.5, 62.0, 22.0 ],
					"text" : "r glucose"
				}

			}
, 			{
				"box" : 				{
					"bgmode" : 0,
					"border" : 0,
					"clickthrough" : 0,
					"enablehscroll" : 0,
					"enablevscroll" : 0,
					"id" : "obj-13",
					"lockeddragscroll" : 0,
					"lockedsize" : 0,
					"maxclass" : "bpatcher",
					"name" : "Map_env.maxpat",
					"numinlets" : 0,
					"numoutlets" : 1,
					"offset" : [ 0.0, 0.0 ],
					"outlettype" : [ "signal" ],
					"patching_rect" : [ 956.5, 850.19999934732914, 568.75, 357.30000065267086 ],
					"presentation" : 1,
					"presentation_rect" : [ 948.5, 567.0, 584.75, 247.30000065267086 ],
					"viewvisibility" : 1
				}

			}
, 			{
				"box" : 				{
					"bgmode" : 0,
					"border" : 0,
					"clickthrough" : 0,
					"enablehscroll" : 0,
					"enablevscroll" : 0,
					"id" : "obj-20",
					"lockeddragscroll" : 0,
					"lockedsize" : 0,
					"maxclass" : "bpatcher",
					"name" : "Display.maxpat",
					"numinlets" : 0,
					"numoutlets" : 0,
					"offset" : [ 0.0, 0.0 ],
					"patching_rect" : [ 27.0, 589.0, 919.5, 618.5 ],
					"presentation" : 1,
					"presentation_rect" : [ 27.0, 567.0, 919.5, 618.5 ],
					"viewvisibility" : 1
				}

			}
, 			{
				"box" : 				{
					"id" : "obj-14",
					"maxclass" : "newobj",
					"numinlets" : 0,
					"numoutlets" : 1,
					"outlettype" : [ "" ],
					"patching_rect" : [ 710.400005757808685, 122.5, 62.0, 22.0 ],
					"text" : "r glucose"
				}

			}
, 			{
				"box" : 				{
					"id" : "obj-12",
					"maxclass" : "newobj",
					"numinlets" : 0,
					"numoutlets" : 1,
					"outlettype" : [ "" ],
					"patching_rect" : [ 697.400005757808685, 22.0, 62.0, 22.0 ],
					"text" : "r glucose"
				}

			}
, 			{
				"box" : 				{
					"id" : "obj-146",
					"maxclass" : "dial",
					"numinlets" : 1,
					"numoutlets" : 1,
					"outlettype" : [ "float" ],
					"parameter_enable" : 0,
					"patching_rect" : [ 753.400005757808685, 113.5, 40.0, 40.0 ],
					"size" : 10.0
				}

			}
, 			{
				"box" : 				{
					"id" : "obj-141",
					"maxclass" : "newobj",
					"numinlets" : 3,
					"numoutlets" : 0,
					"patcher" : 					{
						"fileversion" : 1,
						"appversion" : 						{
							"major" : 8,
							"minor" : 5,
							"revision" : 3,
							"architecture" : "x64",
							"modernui" : 1
						}
,
						"classnamespace" : "box",
						"rect" : [ 34.0, 87.0, 1358.0, 622.0 ],
						"bglocked" : 0,
						"openinpresentation" : 0,
						"default_fontsize" : 12.0,
						"default_fontface" : 0,
						"default_fontname" : "Arial",
						"gridonopen" : 1,
						"gridsize" : [ 15.0, 15.0 ],
						"gridsnaponopen" : 1,
						"objectsnaponopen" : 1,
						"statusbarvisible" : 2,
						"toolbarvisible" : 1,
						"lefttoolbarpinned" : 0,
						"toptoolbarpinned" : 0,
						"righttoolbarpinned" : 0,
						"bottomtoolbarpinned" : 0,
						"toolbars_unpinned_last_save" : 0,
						"tallnewobj" : 0,
						"boxanimatetime" : 200,
						"enablehscroll" : 1,
						"enablevscroll" : 1,
						"devicewidth" : 0.0,
						"description" : "",
						"digest" : "",
						"tags" : "",
						"style" : "",
						"subpatcher_template" : "",
						"assistshowspatchername" : 0,
						"visible" : 1,
						"boxes" : [ 							{
								"box" : 								{
									"comment" : "",
									"id" : "obj-8",
									"index" : 1,
									"maxclass" : "inlet",
									"numinlets" : 0,
									"numoutlets" : 1,
									"outlettype" : [ "" ],
									"patching_rect" : [ 117.0, 205.0, 30.0, 30.0 ]
								}

							}
, 							{
								"box" : 								{
									"id" : "obj-5",
									"maxclass" : "number",
									"numinlets" : 1,
									"numoutlets" : 2,
									"outlettype" : [ "", "bang" ],
									"parameter_enable" : 0,
									"patching_rect" : [ 152.0, 144.0, 50.0, 22.0 ]
								}

							}
, 							{
								"box" : 								{
									"id" : "obj-81",
									"lastchannelcount" : 0,
									"maxclass" : "live.gain~",
									"numinlets" : 2,
									"numoutlets" : 5,
									"outlettype" : [ "signal", "signal", "", "float", "list" ],
									"parameter_enable" : 1,
									"patching_rect" : [ 240.100008368492126, 361.5, 48.0, 136.0 ],
									"saved_attribute_attributes" : 									{
										"valueof" : 										{
											"parameter_longname" : "live.gain~[3]",
											"parameter_mmax" : 6.0,
											"parameter_mmin" : -70.0,
											"parameter_shortname" : "live.gain~",
											"parameter_type" : 0,
											"parameter_unitstyle" : 4
										}

									}
,
									"varname" : "live.gain~"
								}

							}
, 							{
								"box" : 								{
									"id" : "obj-2",
									"maxclass" : "comment",
									"numinlets" : 1,
									"numoutlets" : 0,
									"patching_rect" : [ 364.0, 48.0, 166.0, 20.0 ],
									"text" : "en dessous de 150 saturation"
								}

							}
, 							{
								"box" : 								{
									"comment" : "",
									"id" : "obj-4",
									"index" : 3,
									"maxclass" : "inlet",
									"numinlets" : 0,
									"numoutlets" : 1,
									"outlettype" : [ "float" ],
									"patching_rect" : [ 374.0, 247.0, 30.0, 30.0 ]
								}

							}
, 							{
								"box" : 								{
									"comment" : "",
									"id" : "obj-3",
									"index" : 2,
									"maxclass" : "inlet",
									"numinlets" : 0,
									"numoutlets" : 1,
									"outlettype" : [ "" ],
									"patching_rect" : [ 232.400005757808685, 43.0, 30.0, 30.0 ]
								}

							}
, 							{
								"box" : 								{
									"id" : "obj-140",
									"maxclass" : "newobj",
									"numinlets" : 2,
									"numoutlets" : 1,
									"outlettype" : [ "int" ],
									"patching_rect" : [ 232.400005757808685, 88.0, 29.5, 22.0 ],
									"text" : "/ 4"
								}

							}
, 							{
								"box" : 								{
									"format" : 6,
									"id" : "obj-128",
									"maxclass" : "flonum",
									"numinlets" : 1,
									"numoutlets" : 2,
									"outlettype" : [ "", "bang" ],
									"parameter_enable" : 0,
									"patching_rect" : [ 264.400005757808685, 300.0, 50.0, 22.0 ]
								}

							}
, 							{
								"box" : 								{
									"id" : "obj-112",
									"maxclass" : "newobj",
									"numinlets" : 2,
									"numoutlets" : 1,
									"outlettype" : [ "signal" ],
									"patching_rect" : [ 219.600008368492126, 337.5, 34.0, 22.0 ],
									"text" : "*~ 1."
								}

							}
, 							{
								"box" : 								{
									"id" : "obj-109",
									"local" : 1,
									"maxclass" : "ezdac~",
									"numinlets" : 2,
									"numoutlets" : 0,
									"patching_rect" : [ 240.100008368492126, 543.0, 45.0, 45.0 ]
								}

							}
, 							{
								"box" : 								{
									"id" : "obj-108",
									"maxclass" : "newobj",
									"numinlets" : 2,
									"numoutlets" : 1,
									"outlettype" : [ "" ],
									"patching_rect" : [ 232.400005757808685, 181.75, 49.0, 22.0 ],
									"text" : "pack i i"
								}

							}
, 							{
								"box" : 								{
									"id" : "obj-107",
									"maxclass" : "kslider",
									"numinlets" : 2,
									"numoutlets" : 2,
									"outlettype" : [ "int", "int" ],
									"parameter_enable" : 0,
									"patching_rect" : [ 232.400005757808685, 127.500000238418579, 196.0, 34.0 ]
								}

							}
, 							{
								"box" : 								{
									"id" : "obj-105",
									"maxclass" : "newobj",
									"numinlets" : 7,
									"numoutlets" : 2,
									"outlettype" : [ "int", "" ],
									"patching_rect" : [ 232.400005757808685, 212.0, 82.0, 22.0 ],
									"text" : "midiformat"
								}

							}
, 							{
								"box" : 								{
									"autosave" : 1,
									"id" : "obj-103",
									"inletInfo" : 									{
										"IOInfo" : [ 											{
												"type" : "midi",
												"index" : -1,
												"tag" : "",
												"comment" : ""
											}
 ]
									}
,
									"maxclass" : "newobj",
									"numinlets" : 2,
									"numoutlets" : 2,
									"outletInfo" : 									{
										"IOInfo" : [ 											{
												"type" : "signal",
												"index" : 1,
												"tag" : "out1",
												"comment" : ""
											}
 ]
									}
,
									"outlettype" : [ "signal", "list" ],
									"patcher" : 									{
										"fileversion" : 1,
										"appversion" : 										{
											"major" : 8,
											"minor" : 5,
											"revision" : 3,
											"architecture" : "x64",
											"modernui" : 1
										}
,
										"classnamespace" : "rnbo",
										"rect" : [ -1447.0, -40.0, 1358.0, 622.0 ],
										"bglocked" : 0,
										"openinpresentation" : 0,
										"default_fontsize" : 12.0,
										"default_fontface" : 0,
										"default_fontname" : "Lato",
										"gridonopen" : 1,
										"gridsize" : [ 15.0, 15.0 ],
										"gridsnaponopen" : 1,
										"objectsnaponopen" : 1,
										"statusbarvisible" : 2,
										"toolbarvisible" : 1,
										"lefttoolbarpinned" : 0,
										"toptoolbarpinned" : 0,
										"righttoolbarpinned" : 0,
										"bottomtoolbarpinned" : 0,
										"toolbars_unpinned_last_save" : 0,
										"tallnewobj" : 0,
										"boxanimatetime" : 200,
										"enablehscroll" : 1,
										"enablevscroll" : 1,
										"devicewidth" : 0.0,
										"description" : "",
										"digest" : "",
										"tags" : "",
										"style" : "",
										"subpatcher_template" : "",
										"assistshowspatchername" : 0,
										"title" : "untitled",
										"boxes" : [ 											{
												"box" : 												{
													"id" : "obj-19",
													"maxclass" : "newobj",
													"numinlets" : 2,
													"numoutlets" : 1,
													"outlettype" : [ "signal" ],
													"patching_rect" : [ 149.5, 409.0, 47.0, 23.0 ],
													"rnbo_classname" : "*~",
													"rnbo_serial" : 1,
													"rnbo_uniqueid" : "*~_obj-19",
													"text" : "*~ 0.05"
												}

											}
, 											{
												"box" : 												{
													"id" : "obj-18",
													"maxclass" : "newobj",
													"numinlets" : 3,
													"numoutlets" : 1,
													"outlettype" : [ "signal" ],
													"patching_rect" : [ 149.5, 470.0, 85.0, 23.0 ],
													"rnbo_classname" : "lores~",
													"rnbo_serial" : 1,
													"rnbo_uniqueid" : "lores~_obj-18",
													"text" : "lores~ 40 0.85"
												}

											}
, 											{
												"box" : 												{
													"genpatcher" : 													{
														"patcher" : 														{
															"fileversion" : 1,
															"appversion" : 															{
																"major" : 8,
																"minor" : 5,
																"revision" : 3,
																"architecture" : "x64",
																"modernui" : 1
															}
,
															"classnamespace" : "dsp.gen",
															"rect" : [ 59.0, 106.0, 600.0, 450.0 ],
															"bglocked" : 0,
															"openinpresentation" : 0,
															"default_fontsize" : 12.0,
															"default_fontface" : 0,
															"default_fontname" : "Arial",
															"gridonopen" : 1,
															"gridsize" : [ 15.0, 15.0 ],
															"gridsnaponopen" : 1,
															"objectsnaponopen" : 1,
															"statusbarvisible" : 2,
															"toolbarvisible" : 1,
															"lefttoolbarpinned" : 0,
															"toptoolbarpinned" : 0,
															"righttoolbarpinned" : 0,
															"bottomtoolbarpinned" : 0,
															"toolbars_unpinned_last_save" : 0,
															"tallnewobj" : 0,
															"boxanimatetime" : 200,
															"enablehscroll" : 1,
															"enablevscroll" : 1,
															"devicewidth" : 0.0,
															"description" : "",
															"digest" : "",
															"tags" : "",
															"style" : "",
															"subpatcher_template" : "",
															"assistshowspatchername" : 0,
															"boxes" : [ 																{
																	"box" : 																	{
																		"maxclass" : "newobj",
																		"text" : "gen @gen waveguide_string.gendsp",
																		"outlettype" : [ "", "" ],
																		"id" : "obj-5",
																		"patching_rect" : [ 237.0, 267.0, 203.0, 22.0 ],
																		"numinlets" : 1,
																		"numoutlets" : 2
																	}

																}
, 																{
																	"box" : 																	{
																		"maxclass" : "newobj",
																		"text" : "in 1",
																		"outlettype" : [ "" ],
																		"id" : "obj-1",
																		"patching_rect" : [ 176.0, 145.0, 28.0, 22.0 ],
																		"numinlets" : 0,
																		"numoutlets" : 1
																	}

																}
, 																{
																	"box" : 																	{
																		"maxclass" : "newobj",
																		"text" : "out 1",
																		"id" : "obj-4",
																		"patching_rect" : [ 176.0, 418.0, 35.0, 22.0 ],
																		"numinlets" : 1,
																		"numoutlets" : 0
																	}

																}
 ],
															"lines" : [ 																{
																	"patchline" : 																	{
																		"source" : [ "obj-1", 0 ],
																		"destination" : [ "obj-4", 0 ]
																	}

																}
 ]
														}

													}
,
													"id" : "obj-17",
													"maxclass" : "newobj",
													"numinlets" : 1,
													"numoutlets" : 1,
													"outlettype" : [ "signal" ],
													"patching_rect" : [ 149.5, 434.0, 36.0, 23.0 ],
													"rnbo_classname" : "gen~",
													"rnbo_extra_attributes" : 													{
														"exposeparams" : 0
													}
,
													"rnbo_serial" : 1,
													"rnbo_uniqueid" : "gen~_obj-17",
													"rnboinfo" : 													{
														"needsInstanceInfo" : 1,
														"argnames" : 														{
															"in1" : 															{
																"attrOrProp" : 1,
																"digest" : "in1",
																"isalias" : 0,
																"aliases" : [  ],
																"attachable" : 0,
																"isparam" : 0,
																"deprecated" : 0,
																"inlet" : 1,
																"type" : "number"
															}
,
															"reset" : 															{
																"attrOrProp" : 1,
																"digest" : "Reset all param and history objects to initial values",
																"isalias" : 0,
																"aliases" : [  ],
																"attachable" : 1,
																"isparam" : 0,
																"deprecated" : 0,
																"type" : "bang"
															}
,
															"expr" : 															{
																"attrOrProp" : 2,
																"digest" : "a gen expression",
																"isalias" : 0,
																"aliases" : [  ],
																"settable" : 1,
																"attachable" : 0,
																"isparam" : 0,
																"deprecated" : 0,
																"type" : "symbol",
																"doNotShowInMaxInspector" : 1
															}
,
															"file" : 															{
																"attrOrProp" : 2,
																"digest" : "gendsp file to load",
																"isalias" : 0,
																"aliases" : [  ],
																"settable" : 1,
																"attachable" : 0,
																"isparam" : 0,
																"deprecated" : 0,
																"type" : "symbol",
																"doNotShowInMaxInspector" : 1
															}
,
															"title" : 															{
																"attrOrProp" : 2,
																"digest" : "a title",
																"defaultarg" : 1,
																"isalias" : 0,
																"aliases" : [ "t" ],
																"settable" : 1,
																"attachable" : 0,
																"isparam" : 0,
																"deprecated" : 0,
																"type" : "symbol",
																"doNotShowInMaxInspector" : 1
															}
,
															"t" : 															{
																"attrOrProp" : 2,
																"digest" : "a title",
																"defaultarg" : 1,
																"isalias" : 1,
																"aliasOf" : "title",
																"aliases" : [  ],
																"settable" : 1,
																"attachable" : 0,
																"isparam" : 0,
																"deprecated" : 0,
																"type" : "symbol"
															}
,
															"exposeparams" : 															{
																"attrOrProp" : 2,
																"digest" : "Expose gen params as RNBO params.",
																"isalias" : 0,
																"aliases" : [  ],
																"settable" : 1,
																"attachable" : 0,
																"isparam" : 0,
																"deprecated" : 0,
																"type" : "bool",
																"defaultValue" : "false"
															}

														}
,
														"inputs" : [ 															{
																"name" : "in1",
																"type" : "auto",
																"digest" : "in1",
																"hot" : 1,
																"docked" : 0
															}
 ],
														"outputs" : [ 															{
																"name" : "out1",
																"type" : "signal"
															}
 ],
														"helpname" : "gen~",
														"aliasOf" : "gen~",
														"classname" : "gen~",
														"operator" : 0,
														"versionId" : 932019353,
														"changesPatcherIO" : 0
													}
,
													"text" : "gen~"
												}

											}
, 											{
												"box" : 												{
													"id" : "obj-16",
													"maxclass" : "newobj",
													"numinlets" : 2,
													"numoutlets" : 2,
													"outlettype" : [ "signal", "signal" ],
													"patching_rect" : [ 330.5, 337.0, 52.0, 23.0 ],
													"rnbo_classname" : "cycle~",
													"rnbo_extra_attributes" : 													{
														"buffername" : "RNBODefaultSinus",
														"index" : "freq",
														"interp" : "linear"
													}
,
													"rnbo_serial" : 1,
													"rnbo_uniqueid" : "cycle~_obj-16",
													"text" : "cycle~ 3"
												}

											}
, 											{
												"box" : 												{
													"id" : "obj-15",
													"maxclass" : "newobj",
													"numinlets" : 2,
													"numoutlets" : 2,
													"outlettype" : [ "signal", "signal" ],
													"patching_rect" : [ 246.0, 337.0, 52.0, 23.0 ],
													"rnbo_classname" : "cycle~",
													"rnbo_extra_attributes" : 													{
														"buffername" : "RNBODefaultSinus",
														"index" : "freq",
														"interp" : "linear"
													}
,
													"rnbo_serial" : 2,
													"rnbo_uniqueid" : "cycle~_obj-15",
													"text" : "cycle~ 2"
												}

											}
, 											{
												"box" : 												{
													"id" : "obj-14",
													"maxclass" : "newobj",
													"numinlets" : 2,
													"numoutlets" : 2,
													"outlettype" : [ "signal", "signal" ],
													"patching_rect" : [ 163.5, 337.0, 52.0, 23.0 ],
													"rnbo_classname" : "cycle~",
													"rnbo_extra_attributes" : 													{
														"buffername" : "RNBODefaultSinus",
														"index" : "freq",
														"interp" : "linear"
													}
,
													"rnbo_serial" : 3,
													"rnbo_uniqueid" : "cycle~_obj-14",
													"text" : "cycle~ 1"
												}

											}
, 											{
												"box" : 												{
													"id" : "obj-13",
													"maxclass" : "newobj",
													"numinlets" : 2,
													"numoutlets" : 1,
													"outlettype" : [ "signal" ],
													"patching_rect" : [ 316.5, 371.0, 33.0, 23.0 ],
													"rnbo_classname" : "*~",
													"rnbo_serial" : 2,
													"rnbo_uniqueid" : "*~_obj-13",
													"text" : "*~ 1."
												}

											}
, 											{
												"box" : 												{
													"id" : "obj-12",
													"maxclass" : "newobj",
													"numinlets" : 2,
													"numoutlets" : 1,
													"outlettype" : [ "signal" ],
													"patching_rect" : [ 232.0, 371.0, 33.0, 23.0 ],
													"rnbo_classname" : "*~",
													"rnbo_serial" : 3,
													"rnbo_uniqueid" : "*~_obj-12",
													"text" : "*~ 1."
												}

											}
, 											{
												"box" : 												{
													"id" : "obj-11",
													"maxclass" : "newobj",
													"numinlets" : 2,
													"numoutlets" : 1,
													"outlettype" : [ "signal" ],
													"patching_rect" : [ 149.5, 371.0, 33.0, 23.0 ],
													"rnbo_classname" : "*~",
													"rnbo_serial" : 4,
													"rnbo_uniqueid" : "*~_obj-11",
													"text" : "*~ 1."
												}

											}
, 											{
												"box" : 												{
													"id" : "obj-10",
													"maxclass" : "newobj",
													"numinlets" : 2,
													"numoutlets" : 2,
													"outlettype" : [ "signal", "signal" ],
													"patching_rect" : [ 316.5, 299.0, 42.0, 23.0 ],
													"rnbo_classname" : "cycle~",
													"rnbo_extra_attributes" : 													{
														"buffername" : "RNBODefaultSinus",
														"index" : "freq",
														"interp" : "linear"
													}
,
													"rnbo_serial" : 4,
													"rnbo_uniqueid" : "cycle~_obj-10",
													"text" : "cycle~"
												}

											}
, 											{
												"box" : 												{
													"id" : "obj-9",
													"maxclass" : "newobj",
													"numinlets" : 2,
													"numoutlets" : 2,
													"outlettype" : [ "signal", "signal" ],
													"patching_rect" : [ 232.0, 299.0, 42.0, 23.0 ],
													"rnbo_classname" : "cycle~",
													"rnbo_extra_attributes" : 													{
														"buffername" : "RNBODefaultSinus",
														"index" : "freq",
														"interp" : "linear"
													}
,
													"rnbo_serial" : 5,
													"rnbo_uniqueid" : "cycle~_obj-9",
													"text" : "cycle~"
												}

											}
, 											{
												"box" : 												{
													"id" : "obj-8",
													"maxclass" : "newobj",
													"numinlets" : 2,
													"numoutlets" : 1,
													"outlettype" : [ "" ],
													"patching_rect" : [ 316.5, 262.0, 29.5, 23.0 ],
													"rnbo_classname" : "*",
													"rnbo_extra_attributes" : 													{
														"hot" : 0
													}
,
													"rnbo_serial" : 1,
													"rnbo_uniqueid" : "*_obj-8",
													"text" : "* 3."
												}

											}
, 											{
												"box" : 												{
													"id" : "obj-7",
													"maxclass" : "newobj",
													"numinlets" : 2,
													"numoutlets" : 1,
													"outlettype" : [ "" ],
													"patching_rect" : [ 232.0, 262.0, 29.5, 23.0 ],
													"rnbo_classname" : "*",
													"rnbo_extra_attributes" : 													{
														"hot" : 0
													}
,
													"rnbo_serial" : 2,
													"rnbo_uniqueid" : "*_obj-7",
													"text" : "* 2."
												}

											}
, 											{
												"box" : 												{
													"id" : "obj-6",
													"maxclass" : "newobj",
													"numinlets" : 1,
													"numoutlets" : 0,
													"patching_rect" : [ 149.5, 505.0, 43.0, 23.0 ],
													"rnbo_classname" : "out~",
													"rnbo_extra_attributes" : 													{
														"meta" : "",
														"comment" : ""
													}
,
													"rnbo_serial" : 1,
													"rnbo_uniqueid" : "out~_obj-6",
													"rnboinfo" : 													{
														"needsInstanceInfo" : 1,
														"argnames" : 														{
															"in1" : 															{
																"attrOrProp" : 1,
																"digest" : "signal sent to outlet with index 1",
																"isalias" : 0,
																"aliases" : [  ],
																"settable" : 0,
																"attachable" : 0,
																"isparam" : 0,
																"deprecated" : 0,
																"inlet" : 1,
																"type" : "signal"
															}
,
															"index" : 															{
																"attrOrProp" : 2,
																"digest" : "outlet number",
																"defaultarg" : 1,
																"isalias" : 0,
																"aliases" : [  ],
																"settable" : 1,
																"attachable" : 0,
																"isparam" : 0,
																"deprecated" : 0,
																"type" : "number",
																"mandatory" : 1
															}
,
															"comment" : 															{
																"attrOrProp" : 2,
																"digest" : "mouse over comment",
																"isalias" : 0,
																"aliases" : [  ],
																"settable" : 1,
																"attachable" : 0,
																"isparam" : 0,
																"deprecated" : 0,
																"type" : "symbol"
															}
,
															"meta" : 															{
																"attrOrProp" : 2,
																"digest" : "A JSON formatted string containing metadata for use by the exported code",
																"isalias" : 0,
																"aliases" : [  ],
																"settable" : 1,
																"attachable" : 0,
																"isparam" : 0,
																"deprecated" : 0,
																"type" : "symbol",
																"defaultValue" : "",
																"label" : "Metadata",
																"displayorder" : 3
															}

														}
,
														"inputs" : [ 															{
																"name" : "in1",
																"type" : "signal",
																"digest" : "signal sent to outlet with index 1",
																"displayName" : "",
																"hot" : 1,
																"docked" : 0
															}
 ],
														"outputs" : [  ],
														"helpname" : "out~",
														"aliasOf" : "out~",
														"classname" : "out~",
														"operator" : 0,
														"versionId" : 374499139,
														"changesPatcherIO" : 1
													}
,
													"text" : "out~ 1"
												}

											}
, 											{
												"box" : 												{
													"id" : "obj-5",
													"maxclass" : "newobj",
													"numinlets" : 2,
													"numoutlets" : 2,
													"outlettype" : [ "signal", "signal" ],
													"patching_rect" : [ 149.5, 299.0, 42.0, 23.0 ],
													"rnbo_classname" : "cycle~",
													"rnbo_extra_attributes" : 													{
														"buffername" : "RNBODefaultSinus",
														"index" : "freq",
														"interp" : "linear"
													}
,
													"rnbo_serial" : 6,
													"rnbo_uniqueid" : "cycle~_obj-5",
													"text" : "cycle~"
												}

											}
, 											{
												"box" : 												{
													"id" : "obj-4",
													"maxclass" : "newobj",
													"numinlets" : 2,
													"numoutlets" : 1,
													"outlettype" : [ "" ],
													"patching_rect" : [ 149.5, 205.0, 33.0, 23.0 ],
													"rnbo_classname" : "mtof",
													"rnbo_extra_attributes" : 													{
														"filter" : 1.0,
														"scalename" : ""
													}
,
													"rnbo_serial" : 1,
													"rnbo_uniqueid" : "mtof_obj-4",
													"rnboinfo" : 													{
														"needsInstanceInfo" : 1,
														"argnames" : 														{
															"midivalue" : 															{
																"attrOrProp" : 1,
																"digest" : "MIDI Note Number",
																"isalias" : 0,
																"aliases" : [  ],
																"settable" : 1,
																"attachable" : 0,
																"isparam" : 0,
																"deprecated" : 0,
																"inlet" : 1,
																"type" : "list"
															}
,
															"tuning" : 															{
																"attrOrProp" : 1,
																"digest" : "Set base frequency",
																"isalias" : 0,
																"aliases" : [  ],
																"attachable" : 0,
																"isparam" : 0,
																"deprecated" : 0,
																"inlet" : 1,
																"type" : "number"
															}
,
															"scale" : 															{
																"attrOrProp" : 1,
																"digest" : "Scala scl formatted list",
																"isalias" : 0,
																"aliases" : [  ],
																"settable" : 1,
																"attachable" : 1,
																"isparam" : 0,
																"deprecated" : 0,
																"type" : "list"
															}
,
															"map" : 															{
																"attrOrProp" : 1,
																"digest" : "Scala kbm formatted list",
																"isalias" : 0,
																"aliases" : [  ],
																"settable" : 1,
																"attachable" : 1,
																"isparam" : 0,
																"deprecated" : 0,
																"type" : "list"
															}
,
															"ref" : 															{
																"attrOrProp" : 1,
																"digest" : "Reference note for which the 'base' frequency is given",
																"isalias" : 0,
																"aliases" : [  ],
																"settable" : 1,
																"attachable" : 1,
																"isparam" : 0,
																"deprecated" : 0,
																"type" : "number",
																"defaultValue" : "69"
															}
,
															"mid" : 															{
																"attrOrProp" : 1,
																"digest" : "Middle note where the first scale degree is mapped",
																"isalias" : 0,
																"aliases" : [  ],
																"settable" : 1,
																"attachable" : 1,
																"isparam" : 0,
																"deprecated" : 0,
																"type" : "number",
																"defaultValue" : "60"
															}
,
															"base" : 															{
																"attrOrProp" : 1,
																"digest" : "Frequency to tune 'ref' note to",
																"isalias" : 0,
																"aliases" : [  ],
																"settable" : 1,
																"attachable" : 1,
																"isparam" : 0,
																"deprecated" : 0,
																"type" : "number",
																"defaultValue" : "440"
															}
,
															"out" : 															{
																"attrOrProp" : 1,
																"digest" : "Frequency (Hz)",
																"isalias" : 0,
																"aliases" : [  ],
																"attachable" : 0,
																"isparam" : 0,
																"deprecated" : 0,
																"outlet" : 1,
																"type" : "list"
															}
,
															"scalename" : 															{
																"attrOrProp" : 2,
																"digest" : "Scale Name",
																"defaultarg" : 1,
																"isalias" : 0,
																"aliases" : [  ],
																"settable" : 1,
																"attachable" : 0,
																"isparam" : 0,
																"deprecated" : 0,
																"type" : "symbol"
															}
,
															"filter" : 															{
																"attrOrProp" : 2,
																"digest" : "Filter unmapped values",
																"isalias" : 0,
																"aliases" : [  ],
																"settable" : 1,
																"attachable" : 0,
																"isparam" : 0,
																"deprecated" : 0,
																"type" : "number",
																"defaultValue" : "1"
															}

														}
,
														"inputs" : [ 															{
																"name" : "midivalue",
																"type" : "list",
																"digest" : "MIDI Note Number",
																"hot" : 1,
																"docked" : 0
															}
, 															{
																"name" : "tuning",
																"type" : "number",
																"digest" : "Set base frequency",
																"docked" : 0
															}
 ],
														"outputs" : [ 															{
																"name" : "out",
																"type" : "list",
																"digest" : "Frequency (Hz)",
																"docked" : 0
															}
 ],
														"helpname" : "mtof",
														"aliasOf" : "mtof",
														"classname" : "mtof",
														"operator" : 0,
														"versionId" : -1849651807,
														"changesPatcherIO" : 0
													}
,
													"text" : "mtof"
												}

											}
, 											{
												"box" : 												{
													"id" : "obj-3",
													"maxclass" : "newobj",
													"numinlets" : 1,
													"numoutlets" : 2,
													"outlettype" : [ "", "" ],
													"patching_rect" : [ 149.5, 168.0, 58.0, 23.0 ],
													"rnbo_classname" : "unpack",
													"rnbo_extra_attributes" : 													{
														"length" : 0.0
													}
,
													"rnbo_serial" : 1,
													"rnbo_uniqueid" : "unpack_obj-3",
													"rnboinfo" : 													{
														"needsInstanceInfo" : 1,
														"argnames" : 														{
															"out1" : 															{
																"attrOrProp" : 1,
																"digest" : "list element 1",
																"defaultarg" : 1,
																"isalias" : 0,
																"aliases" : [  ],
																"settable" : 0,
																"attachable" : 0,
																"isparam" : 0,
																"deprecated" : 0,
																"outlet" : 1,
																"type" : "number",
																"defaultValue" : "0"
															}
,
															"out2" : 															{
																"attrOrProp" : 1,
																"digest" : "list element 2",
																"defaultarg" : 2,
																"isalias" : 0,
																"aliases" : [  ],
																"settable" : 0,
																"attachable" : 0,
																"isparam" : 0,
																"deprecated" : 0,
																"outlet" : 1,
																"type" : "number",
																"defaultValue" : "0"
															}
,
															"length" : 															{
																"attrOrProp" : 2,
																"digest" : "how many things to unpack",
																"isalias" : 0,
																"aliases" : [  ],
																"settable" : 1,
																"attachable" : 0,
																"isparam" : 0,
																"deprecated" : 0,
																"type" : "number"
															}
,
															"list" : 															{
																"attrOrProp" : 2,
																"digest" : "the list to initialize the unpack object with",
																"defaultarg" : 1,
																"isalias" : 0,
																"aliases" : [  ],
																"settable" : 1,
																"attachable" : 0,
																"isparam" : 0,
																"deprecated" : 0,
																"type" : "list"
															}

														}
,
														"inputs" : [ 															{
																"name" : "input",
																"type" : [ "bang", "list" ],
																"digest" : "input list",
																"hot" : 1,
																"docked" : 0
															}
 ],
														"outputs" : [ 															{
																"name" : "out1",
																"type" : "number",
																"digest" : "list element 1",
																"defaultarg" : 1,
																"docked" : 0
															}
, 															{
																"name" : "out2",
																"type" : "number",
																"digest" : "list element 2",
																"defaultarg" : 2,
																"docked" : 0
															}
 ],
														"helpname" : "unpack",
														"aliasOf" : "unpack",
														"classname" : "unpack",
														"operator" : 0,
														"versionId" : 1723330322,
														"changesPatcherIO" : 0
													}
,
													"text" : "unpack i i"
												}

											}
, 											{
												"box" : 												{
													"id" : "obj-2",
													"maxclass" : "newobj",
													"numinlets" : 1,
													"numoutlets" : 7,
													"outlettype" : [ "", "", "", "", "", "", "" ],
													"patching_rect" : [ 149.5, 125.0, 82.0, 23.0 ],
													"rnbo_classname" : "midiparse",
													"rnbo_extra_attributes" : 													{
														"bendmode" : "float"
													}
,
													"rnbo_serial" : 1,
													"rnbo_uniqueid" : "midiparse_obj-2",
													"text" : "midiparse"
												}

											}
, 											{
												"box" : 												{
													"id" : "obj-1",
													"maxclass" : "newobj",
													"numinlets" : 1,
													"numoutlets" : 1,
													"outlettype" : [ "" ],
													"patching_rect" : [ 149.5, 79.0, 40.0, 23.0 ],
													"rnbo_classname" : "midiin",
													"rnbo_serial" : 1,
													"rnbo_uniqueid" : "midiin_obj-1",
													"text" : "midiin"
												}

											}
 ],
										"lines" : [ 											{
												"patchline" : 												{
													"destination" : [ "obj-2", 0 ],
													"source" : [ "obj-1", 0 ]
												}

											}
, 											{
												"patchline" : 												{
													"destination" : [ "obj-13", 0 ],
													"source" : [ "obj-10", 0 ]
												}

											}
, 											{
												"patchline" : 												{
													"destination" : [ "obj-19", 0 ],
													"source" : [ "obj-11", 0 ]
												}

											}
, 											{
												"patchline" : 												{
													"destination" : [ "obj-19", 0 ],
													"source" : [ "obj-12", 0 ]
												}

											}
, 											{
												"patchline" : 												{
													"destination" : [ "obj-19", 0 ],
													"source" : [ "obj-13", 0 ]
												}

											}
, 											{
												"patchline" : 												{
													"destination" : [ "obj-11", 1 ],
													"source" : [ "obj-14", 0 ]
												}

											}
, 											{
												"patchline" : 												{
													"destination" : [ "obj-12", 1 ],
													"source" : [ "obj-15", 0 ]
												}

											}
, 											{
												"patchline" : 												{
													"destination" : [ "obj-13", 1 ],
													"source" : [ "obj-16", 0 ]
												}

											}
, 											{
												"patchline" : 												{
													"destination" : [ "obj-18", 0 ],
													"source" : [ "obj-17", 0 ]
												}

											}
, 											{
												"patchline" : 												{
													"destination" : [ "obj-6", 0 ],
													"source" : [ "obj-18", 0 ]
												}

											}
, 											{
												"patchline" : 												{
													"destination" : [ "obj-17", 0 ],
													"source" : [ "obj-19", 0 ]
												}

											}
, 											{
												"patchline" : 												{
													"destination" : [ "obj-3", 0 ],
													"source" : [ "obj-2", 0 ]
												}

											}
, 											{
												"patchline" : 												{
													"destination" : [ "obj-4", 0 ],
													"source" : [ "obj-3", 0 ]
												}

											}
, 											{
												"patchline" : 												{
													"destination" : [ "obj-5", 0 ],
													"order" : 2,
													"source" : [ "obj-4", 0 ]
												}

											}
, 											{
												"patchline" : 												{
													"destination" : [ "obj-7", 0 ],
													"order" : 1,
													"source" : [ "obj-4", 0 ]
												}

											}
, 											{
												"patchline" : 												{
													"destination" : [ "obj-8", 0 ],
													"order" : 0,
													"source" : [ "obj-4", 0 ]
												}

											}
, 											{
												"patchline" : 												{
													"destination" : [ "obj-11", 0 ],
													"source" : [ "obj-5", 0 ]
												}

											}
, 											{
												"patchline" : 												{
													"destination" : [ "obj-9", 0 ],
													"source" : [ "obj-7", 0 ]
												}

											}
, 											{
												"patchline" : 												{
													"destination" : [ "obj-10", 0 ],
													"source" : [ "obj-8", 0 ]
												}

											}
, 											{
												"patchline" : 												{
													"destination" : [ "obj-12", 0 ],
													"source" : [ "obj-9", 0 ]
												}

											}
 ],
										"default_bgcolor" : [ 0.031372549019608, 0.125490196078431, 0.211764705882353, 1.0 ],
										"color" : [ 0.929412, 0.929412, 0.352941, 1.0 ],
										"elementcolor" : [ 0.357540726661682, 0.515565991401672, 0.861786782741547, 1.0 ],
										"accentcolor" : [ 0.343034118413925, 0.506230533123016, 0.86220508813858, 1.0 ],
										"stripecolor" : [ 0.258338063955307, 0.352425158023834, 0.511919498443604, 1.0 ],
										"bgfillcolor_type" : "color",
										"bgfillcolor_color" : [ 0.031372549019608, 0.125490196078431, 0.211764705882353, 1.0 ],
										"bgfillcolor_color1" : [ 0.031372549019608, 0.125490196078431, 0.211764705882353, 1.0 ],
										"bgfillcolor_color2" : [ 0.263682, 0.004541, 0.038797, 1.0 ],
										"bgfillcolor_angle" : 270.0,
										"bgfillcolor_proportion" : 0.39,
										"bgfillcolor_autogradient" : 0.0
									}
,
									"patching_rect" : [ 166.600008368492126, 255.0, 128.0, 22.0 ],
									"rnboattrcache" : 									{

									}
,
									"rnboversion" : "1.1.0",
									"saved_attribute_attributes" : 									{
										"valueof" : 										{
											"parameter_invisible" : 1,
											"parameter_longname" : "rnbo~[1]",
											"parameter_shortname" : "rnbo~",
											"parameter_type" : 3
										}

									}
,
									"saved_object_attributes" : 									{
										"optimization" : "O1",
										"parameter_enable" : 1,
										"polyphony" : 3,
										"uuid" : "450be5b3-bb8f-11ed-a5b3-acbc32aee5b1"
									}
,
									"snapshot" : 									{
										"filetype" : "C74Snapshot",
										"version" : 2,
										"minorversion" : 0,
										"name" : "snapshotlist",
										"origin" : "rnbo~",
										"type" : "list",
										"subtype" : "Undefined",
										"embed" : 1,
										"snapshot" : 										{
											"__sps" : 											{
												"poly" : [ 													{

													}
, 													{

													}
, 													{

													}
 ]
											}
,
											"__presetid" : "450be5b3-bb8f-11ed-a5b3-acbc32aee5b1"
										}
,
										"snapshotlist" : 										{
											"current_snapshot" : 0,
											"entries" : [ 												{
													"filetype" : "C74Snapshot",
													"version" : 2,
													"minorversion" : 0,
													"name" : "untitled",
													"origin" : "450be5b3-bb8f-11ed-a5b3-acbc32aee5b1",
													"type" : "rnbo",
													"subtype" : "",
													"embed" : 1,
													"snapshot" : 													{
														"__sps" : 														{
															"poly" : [ 																{

																}
, 																{

																}
, 																{

																}
 ]
														}
,
														"__presetid" : "450be5b3-bb8f-11ed-a5b3-acbc32aee5b1"
													}
,
													"fileref" : 													{
														"name" : "untitled",
														"filename" : "untitled_20230305.maxsnap",
														"filepath" : "~/Documents/Max 8/Snapshots",
														"filepos" : -1,
														"snapshotfileid" : "1af5ea8aa5c48132fa7350b3dbf2afce"
													}

												}
, 												{
													"filetype" : "C74Snapshot",
													"version" : 2,
													"minorversion" : 0,
													"name" : "untitled",
													"origin" : "450be5b3-bb8f-11ed-a5b3-acbc32aee5b1",
													"type" : "rnbo",
													"subtype" : "",
													"embed" : 0,
													"fileref" : 													{
														"name" : "untitled",
														"filename" : "untitled.maxsnap",
														"filepath" : "~/Documents/Max 8/Snapshots",
														"filepos" : -1,
														"snapshotfileid" : "7a0f658810b8cfeeddcebfdf948adcfe"
													}

												}
 ]
										}

									}
,
									"text" : "rnbo~ @polyphony 3",
									"varname" : "rnbo~"
								}

							}
 ],
						"lines" : [ 							{
								"patchline" : 								{
									"destination" : [ "obj-112", 0 ],
									"source" : [ "obj-103", 0 ]
								}

							}
, 							{
								"patchline" : 								{
									"destination" : [ "obj-103", 1 ],
									"source" : [ "obj-105", 0 ]
								}

							}
, 							{
								"patchline" : 								{
									"destination" : [ "obj-108", 1 ],
									"source" : [ "obj-107", 1 ]
								}

							}
, 							{
								"patchline" : 								{
									"destination" : [ "obj-108", 0 ],
									"source" : [ "obj-107", 0 ]
								}

							}
, 							{
								"patchline" : 								{
									"destination" : [ "obj-105", 0 ],
									"source" : [ "obj-108", 0 ]
								}

							}
, 							{
								"patchline" : 								{
									"destination" : [ "obj-81", 1 ],
									"order" : 0,
									"source" : [ "obj-112", 0 ]
								}

							}
, 							{
								"patchline" : 								{
									"destination" : [ "obj-81", 0 ],
									"order" : 1,
									"source" : [ "obj-112", 0 ]
								}

							}
, 							{
								"patchline" : 								{
									"destination" : [ "obj-112", 1 ],
									"source" : [ "obj-128", 0 ]
								}

							}
, 							{
								"patchline" : 								{
									"destination" : [ "obj-107", 0 ],
									"source" : [ "obj-140", 0 ]
								}

							}
, 							{
								"patchline" : 								{
									"destination" : [ "obj-140", 0 ],
									"source" : [ "obj-3", 0 ]
								}

							}
, 							{
								"patchline" : 								{
									"destination" : [ "obj-128", 0 ],
									"source" : [ "obj-4", 0 ]
								}

							}
, 							{
								"patchline" : 								{
									"destination" : [ "obj-140", 0 ],
									"source" : [ "obj-5", 0 ]
								}

							}
, 							{
								"patchline" : 								{
									"destination" : [ "obj-103", 0 ],
									"source" : [ "obj-8", 0 ]
								}

							}
, 							{
								"patchline" : 								{
									"destination" : [ "obj-109", 1 ],
									"order" : 0,
									"source" : [ "obj-81", 0 ]
								}

							}
, 							{
								"patchline" : 								{
									"destination" : [ "obj-109", 0 ],
									"order" : 1,
									"source" : [ "obj-81", 0 ]
								}

							}
 ]
					}
,
					"patching_rect" : [ 464.400005757808685, 67.5, 104.0, 22.0 ],
					"saved_object_attributes" : 					{
						"description" : "",
						"digest" : "",
						"globalpatchername" : "",
						"tags" : ""
					}
,
					"text" : "p PolyphonyMap"
				}

			}
, 			{
				"box" : 				{
					"id" : "obj-136",
					"maxclass" : "dial",
					"numinlets" : 1,
					"numoutlets" : 1,
					"outlettype" : [ "float" ],
					"parameter_enable" : 0,
					"patching_rect" : [ 549.400005757808685, 17.5, 40.0, 40.0 ],
					"size" : 10.0
				}

			}
, 			{
				"box" : 				{
					"id" : "obj-117",
					"maxclass" : "dial",
					"numinlets" : 1,
					"numoutlets" : 1,
					"outlettype" : [ "float" ],
					"parameter_enable" : 0,
					"patching_rect" : [ 786.400005757808685, 22.0, 40.0, 40.0 ],
					"size" : 10.0
				}

			}
, 			{
				"box" : 				{
					"id" : "obj-5",
					"maxclass" : "newobj",
					"numinlets" : 3,
					"numoutlets" : 0,
					"patcher" : 					{
						"fileversion" : 1,
						"appversion" : 						{
							"major" : 8,
							"minor" : 5,
							"revision" : 3,
							"architecture" : "x64",
							"modernui" : 1
						}
,
						"classnamespace" : "box",
						"rect" : [ -1473.0, -26.0, 1113.0, 622.0 ],
						"bglocked" : 0,
						"openinpresentation" : 0,
						"default_fontsize" : 12.0,
						"default_fontface" : 0,
						"default_fontname" : "Arial",
						"gridonopen" : 1,
						"gridsize" : [ 15.0, 15.0 ],
						"gridsnaponopen" : 1,
						"objectsnaponopen" : 1,
						"statusbarvisible" : 2,
						"toolbarvisible" : 1,
						"lefttoolbarpinned" : 0,
						"toptoolbarpinned" : 0,
						"righttoolbarpinned" : 0,
						"bottomtoolbarpinned" : 0,
						"toolbars_unpinned_last_save" : 0,
						"tallnewobj" : 0,
						"boxanimatetime" : 200,
						"enablehscroll" : 1,
						"enablevscroll" : 1,
						"devicewidth" : 0.0,
						"description" : "",
						"digest" : "",
						"tags" : "",
						"style" : "",
						"subpatcher_template" : "",
						"assistshowspatchername" : 0,
						"boxes" : [ 							{
								"box" : 								{
									"fontname" : "Lato",
									"fontsize" : 13.0,
									"format" : 6,
									"id" : "obj-1",
									"maxclass" : "flonum",
									"minimum" : 0.0,
									"numinlets" : 1,
									"numoutlets" : 2,
									"outlettype" : [ "", "bang" ],
									"parameter_enable" : 0,
									"patching_rect" : [ 310.5, 130.0, 85.0, 24.0 ]
								}

							}
, 							{
								"box" : 								{
									"comment" : "",
									"id" : "obj-24",
									"index" : 3,
									"maxclass" : "inlet",
									"numinlets" : 0,
									"numoutlets" : 1,
									"outlettype" : [ "" ],
									"patching_rect" : [ 426.600008368492126, 108.0, 30.0, 30.0 ]
								}

							}
, 							{
								"box" : 								{
									"format" : 6,
									"id" : "obj-128",
									"maxclass" : "flonum",
									"numinlets" : 1,
									"numoutlets" : 2,
									"outlettype" : [ "", "bang" ],
									"parameter_enable" : 0,
									"patching_rect" : [ 426.600008368492126, 175.0, 50.0, 22.0 ]
								}

							}
, 							{
								"box" : 								{
									"id" : "obj-23",
									"maxclass" : "ezdac~",
									"numinlets" : 2,
									"numoutlets" : 0,
									"patching_rect" : [ 156.5, 310.0, 45.0, 45.0 ]
								}

							}
, 							{
								"box" : 								{
									"comment" : "",
									"id" : "obj-4",
									"index" : 1,
									"maxclass" : "inlet",
									"numinlets" : 0,
									"numoutlets" : 1,
									"outlettype" : [ "" ],
									"patching_rect" : [ 156.5, 127.0, 30.0, 30.0 ]
								}

							}
, 							{
								"box" : 								{
									"comment" : "",
									"id" : "obj-3",
									"index" : 2,
									"maxclass" : "inlet",
									"numinlets" : 0,
									"numoutlets" : 1,
									"outlettype" : [ "" ],
									"patching_rect" : [ 310.5, 29.0, 30.0, 30.0 ]
								}

							}
, 							{
								"box" : 								{
									"fontname" : "Lato",
									"fontsize" : 13.0,
									"id" : "obj-45",
									"maxclass" : "newobj",
									"numinlets" : 2,
									"numoutlets" : 1,
									"outlettype" : [ "" ],
									"patching_rect" : [ 310.5, 78.0, 66.0, 24.0 ],
									"text" : "transratio"
								}

							}
, 							{
								"box" : 								{
									"fontname" : "Arial",
									"fontsize" : 13.0,
									"id" : "obj-13",
									"maxclass" : "newobj",
									"numinlets" : 2,
									"numoutlets" : 1,
									"outlettype" : [ "signal" ],
									"patching_rect" : [ 156.5, 225.5, 46.0, 23.0 ],
									"text" : "*~ 0.2"
								}

							}
, 							{
								"box" : 								{
									"fontname" : "Arial",
									"fontsize" : 13.0,
									"id" : "obj-5",
									"maxclass" : "newobj",
									"numinlets" : 2,
									"numoutlets" : 1,
									"outlettype" : [ "signal" ],
									"patching_rect" : [ 156.5, 174.0, 173.0, 23.0 ],
									"text" : "pfft~ gizmo_loadme 4096 16"
								}

							}
 ],
						"lines" : [ 							{
								"patchline" : 								{
									"destination" : [ "obj-5", 1 ],
									"source" : [ "obj-1", 0 ]
								}

							}
, 							{
								"patchline" : 								{
									"destination" : [ "obj-13", 1 ],
									"source" : [ "obj-128", 0 ]
								}

							}
, 							{
								"patchline" : 								{
									"destination" : [ "obj-23", 1 ],
									"order" : 0,
									"source" : [ "obj-13", 0 ]
								}

							}
, 							{
								"patchline" : 								{
									"destination" : [ "obj-23", 0 ],
									"order" : 1,
									"source" : [ "obj-13", 0 ]
								}

							}
, 							{
								"patchline" : 								{
									"destination" : [ "obj-128", 0 ],
									"source" : [ "obj-24", 0 ]
								}

							}
, 							{
								"patchline" : 								{
									"destination" : [ "obj-45", 0 ],
									"source" : [ "obj-3", 0 ]
								}

							}
, 							{
								"patchline" : 								{
									"destination" : [ "obj-5", 0 ],
									"source" : [ "obj-4", 0 ]
								}

							}
, 							{
								"patchline" : 								{
									"destination" : [ "obj-1", 0 ],
									"source" : [ "obj-45", 0 ]
								}

							}
, 							{
								"patchline" : 								{
									"destination" : [ "obj-13", 0 ],
									"source" : [ "obj-5", 0 ]
								}

							}
 ]
					}
,
					"patching_rect" : [ 697.400005757808685, 187.5, 75.0, 22.0 ],
					"saved_object_attributes" : 					{
						"description" : "",
						"digest" : "",
						"globalpatchername" : "",
						"tags" : ""
					}
,
					"text" : "p Mapping2"
				}

			}
, 			{
				"box" : 				{
					"fontface" : 0,
					"fontsize" : 12.0,
					"id" : "obj-40",
					"maxclass" : "newobj",
					"numinlets" : 2,
					"numoutlets" : 1,
					"outlettype" : [ "signal" ],
					"patcher" : 					{
						"fileversion" : 1,
						"appversion" : 						{
							"major" : 8,
							"minor" : 5,
							"revision" : 3,
							"architecture" : "x64",
							"modernui" : 1
						}
,
						"classnamespace" : "box",
						"rect" : [ -1646.0, -40.0, 1612.0, 954.0 ],
						"bglocked" : 0,
						"openinpresentation" : 0,
						"default_fontsize" : 12.0,
						"default_fontface" : 0,
						"default_fontname" : "Arial",
						"gridonopen" : 1,
						"gridsize" : [ 15.0, 15.0 ],
						"gridsnaponopen" : 1,
						"objectsnaponopen" : 1,
						"statusbarvisible" : 2,
						"toolbarvisible" : 1,
						"lefttoolbarpinned" : 0,
						"toptoolbarpinned" : 0,
						"righttoolbarpinned" : 0,
						"bottomtoolbarpinned" : 0,
						"toolbars_unpinned_last_save" : 0,
						"tallnewobj" : 0,
						"boxanimatetime" : 200,
						"enablehscroll" : 1,
						"enablevscroll" : 1,
						"devicewidth" : 0.0,
						"description" : "",
						"digest" : "",
						"tags" : "",
						"style" : "",
						"subpatcher_template" : "",
						"assistshowspatchername" : 0,
						"boxes" : [ 							{
								"box" : 								{
									"comment" : "",
									"id" : "obj-12",
									"index" : 1,
									"maxclass" : "outlet",
									"numinlets" : 1,
									"numoutlets" : 0,
									"patching_rect" : [ 86.0, 525.0, 30.0, 30.0 ]
								}

							}
, 							{
								"box" : 								{
									"id" : "obj-1",
									"maxclass" : "newobj",
									"numinlets" : 2,
									"numoutlets" : 1,
									"outlettype" : [ "int" ],
									"patching_rect" : [ 86.0, 85.0, 35.0, 22.0 ],
									"text" : "/ 200"
								}

							}
, 							{
								"box" : 								{
									"id" : "obj-17",
									"maxclass" : "newobj",
									"numinlets" : 3,
									"numoutlets" : 1,
									"outlettype" : [ "signal" ],
									"patching_rect" : [ 86.0, 445.0, 78.0, 22.0 ],
									"text" : "lores~ 40 0.9"
								}

							}
, 							{
								"box" : 								{
									"comment" : "",
									"id" : "obj-8",
									"index" : 2,
									"maxclass" : "inlet",
									"numinlets" : 0,
									"numoutlets" : 1,
									"outlettype" : [ "float" ],
									"patching_rect" : [ 101.0, 259.0, 30.0, 30.0 ]
								}

							}
, 							{
								"box" : 								{
									"format" : 6,
									"id" : "obj-9",
									"maxclass" : "flonum",
									"numinlets" : 1,
									"numoutlets" : 2,
									"outlettype" : [ "", "bang" ],
									"parameter_enable" : 0,
									"patching_rect" : [ 101.0, 307.0, 50.0, 22.0 ]
								}

							}
, 							{
								"box" : 								{
									"id" : "obj-7",
									"maxclass" : "newobj",
									"numinlets" : 2,
									"numoutlets" : 1,
									"outlettype" : [ "signal" ],
									"patching_rect" : [ 86.0, 354.0, 34.0, 22.0 ],
									"text" : "*~ 1."
								}

							}
, 							{
								"box" : 								{
									"id" : "obj-32",
									"maxclass" : "scope~",
									"numinlets" : 2,
									"numoutlets" : 0,
									"patching_rect" : [ 196.0, 462.0, 503.0, 70.0 ]
								}

							}
, 							{
								"box" : 								{
									"id" : "obj-3",
									"maxclass" : "newobj",
									"numinlets" : 2,
									"numoutlets" : 1,
									"outlettype" : [ "signal" ],
									"patching_rect" : [ 86.0, 216.0, 66.0, 22.0 ],
									"text" : "cycle~ 220"
								}

							}
, 							{
								"box" : 								{
									"id" : "obj-4",
									"maxclass" : "message",
									"numinlets" : 2,
									"numoutlets" : 1,
									"outlettype" : [ "" ],
									"patching_rect" : [ 253.0, 172.0, 35.0, 22.0 ],
									"text" : "clear"
								}

							}
, 							{
								"box" : 								{
									"id" : "obj-22",
									"maxclass" : "newobj",
									"numinlets" : 1,
									"numoutlets" : 2,
									"outlettype" : [ "float", "bang" ],
									"patching_rect" : [ 86.0, 144.0, 29.5, 22.0 ],
									"text" : "t f b"
								}

							}
, 							{
								"box" : 								{
									"id" : "obj-15",
									"maxclass" : "number",
									"numinlets" : 1,
									"numoutlets" : 2,
									"outlettype" : [ "", "bang" ],
									"parameter_enable" : 0,
									"patching_rect" : [ 86.0, 109.0, 50.0, 22.0 ]
								}

							}
, 							{
								"box" : 								{
									"id" : "obj-13",
									"maxclass" : "button",
									"numinlets" : 1,
									"numoutlets" : 1,
									"outlettype" : [ "bang" ],
									"parameter_enable" : 0,
									"patching_rect" : [ 210.000000000000028, 172.0, 24.0, 24.0 ]
								}

							}
, 							{
								"box" : 								{
									"id" : "obj-11",
									"maxclass" : "newobj",
									"numinlets" : 2,
									"numoutlets" : 2,
									"outlettype" : [ "signal", "bang" ],
									"patching_rect" : [ 313.333333333333371, 341.0, 34.0, 22.0 ],
									"text" : "line~"
								}

							}
, 							{
								"box" : 								{
									"addpoints" : [ 53.191489361702125, 0.506666666666667, 0, 287.2340425531915, 0.746666666666667, 0, 611.702127659574444, 0.4, 0, 845.744680851063777, 0.786666666666667, 0, 1000.0, 0.44, 0 ],
									"id" : "obj-10",
									"maxclass" : "function",
									"numinlets" : 1,
									"numoutlets" : 4,
									"outlettype" : [ "float", "", "", "bang" ],
									"parameter_enable" : 0,
									"patching_rect" : [ 253.0, 220.0, 200.0, 100.0 ]
								}

							}
, 							{
								"box" : 								{
									"comment" : "",
									"id" : "obj-6",
									"index" : 1,
									"maxclass" : "inlet",
									"numinlets" : 0,
									"numoutlets" : 1,
									"outlettype" : [ "" ],
									"patching_rect" : [ 86.0, 47.0, 30.0, 30.0 ]
								}

							}
 ],
						"lines" : [ 							{
								"patchline" : 								{
									"destination" : [ "obj-15", 0 ],
									"source" : [ "obj-1", 0 ]
								}

							}
, 							{
								"patchline" : 								{
									"destination" : [ "obj-11", 0 ],
									"source" : [ "obj-10", 1 ]
								}

							}
, 							{
								"patchline" : 								{
									"destination" : [ "obj-7", 0 ],
									"source" : [ "obj-11", 0 ]
								}

							}
, 							{
								"patchline" : 								{
									"destination" : [ "obj-10", 0 ],
									"source" : [ "obj-13", 0 ]
								}

							}
, 							{
								"patchline" : 								{
									"destination" : [ "obj-22", 0 ],
									"source" : [ "obj-15", 0 ]
								}

							}
, 							{
								"patchline" : 								{
									"destination" : [ "obj-12", 0 ],
									"source" : [ "obj-17", 0 ]
								}

							}
, 							{
								"patchline" : 								{
									"destination" : [ "obj-13", 0 ],
									"source" : [ "obj-22", 1 ]
								}

							}
, 							{
								"patchline" : 								{
									"destination" : [ "obj-3", 0 ],
									"source" : [ "obj-22", 0 ]
								}

							}
, 							{
								"patchline" : 								{
									"destination" : [ "obj-7", 0 ],
									"source" : [ "obj-3", 0 ]
								}

							}
, 							{
								"patchline" : 								{
									"destination" : [ "obj-10", 0 ],
									"source" : [ "obj-4", 0 ]
								}

							}
, 							{
								"patchline" : 								{
									"destination" : [ "obj-1", 0 ],
									"source" : [ "obj-6", 0 ]
								}

							}
, 							{
								"patchline" : 								{
									"destination" : [ "obj-17", 0 ],
									"order" : 1,
									"source" : [ "obj-7", 0 ]
								}

							}
, 							{
								"patchline" : 								{
									"destination" : [ "obj-32", 0 ],
									"order" : 0,
									"source" : [ "obj-7", 0 ]
								}

							}
, 							{
								"patchline" : 								{
									"destination" : [ "obj-9", 0 ],
									"source" : [ "obj-8", 0 ]
								}

							}
, 							{
								"patchline" : 								{
									"destination" : [ "obj-7", 1 ],
									"source" : [ "obj-9", 0 ]
								}

							}
 ]
					}
,
					"patching_rect" : [ 697.400005757808685, 85.0, 108.0, 22.0 ],
					"saved_object_attributes" : 					{
						"description" : "",
						"digest" : "",
						"globalpatchername" : "",
						"tags" : ""
					}
,
					"text" : "p Mapping1"
				}

			}
, 			{
				"box" : 				{
					"background" : 1,
					"bgmode" : 0,
					"border" : 0,
					"clickthrough" : 0,
					"enablehscroll" : 0,
					"enablevscroll" : 0,
					"id" : "obj-26",
					"lockeddragscroll" : 0,
					"lockedsize" : 0,
					"maxclass" : "bpatcher",
					"name" : "data.maxpat",
					"numinlets" : 1,
					"numoutlets" : 1,
					"offset" : [ 0.0, 0.0 ],
					"outlettype" : [ "int" ],
					"patching_rect" : [ 31.0, 345.40000032633543, 552.0, 225.80000065267086 ],
					"presentation" : 1,
					"presentation_rect" : [ 27.0, 332.0, 552.0, 233.0 ],
					"viewvisibility" : 1
				}

			}
 ],
		"lines" : [ 			{
				"patchline" : 				{
					"destination" : [ "obj-7", 0 ],
					"source" : [ "obj-1", 0 ]
				}

			}
, 			{
				"patchline" : 				{
					"destination" : [ "obj-40", 1 ],
					"source" : [ "obj-117", 0 ]
				}

			}
, 			{
				"patchline" : 				{
					"destination" : [ "obj-40", 0 ],
					"source" : [ "obj-12", 0 ]
				}

			}
, 			{
				"patchline" : 				{
					"destination" : [ "obj-141", 2 ],
					"source" : [ "obj-136", 0 ]
				}

			}
, 			{
				"patchline" : 				{
					"destination" : [ "obj-19", 0 ],
					"source" : [ "obj-16", 0 ]
				}

			}
, 			{
				"patchline" : 				{
					"destination" : [ "obj-24", 0 ],
					"source" : [ "obj-17", 0 ]
				}

			}
, 			{
				"patchline" : 				{
					"destination" : [ "obj-17", 1 ],
					"source" : [ "obj-19", 0 ]
				}

			}
, 			{
				"patchline" : 				{
					"destination" : [ "obj-27", 0 ],
					"source" : [ "obj-24", 0 ]
				}

			}
, 			{
				"patchline" : 				{
					"destination" : [ "obj-28", 0 ],
					"source" : [ "obj-27", 0 ]
				}

			}
, 			{
				"patchline" : 				{
					"destination" : [ "obj-29", 0 ],
					"source" : [ "obj-28", 0 ]
				}

			}
, 			{
				"patchline" : 				{
					"destination" : [ "obj-31", 1 ],
					"order" : 0,
					"source" : [ "obj-29", 0 ]
				}

			}
, 			{
				"patchline" : 				{
					"destination" : [ "obj-31", 0 ],
					"order" : 1,
					"source" : [ "obj-29", 0 ]
				}

			}
, 			{
				"patchline" : 				{
					"destination" : [ "obj-3", 0 ],
					"source" : [ "obj-6", 4 ]
				}

			}
, 			{
				"patchline" : 				{
					"destination" : [ "obj-3", 0 ],
					"source" : [ "obj-6", 3 ]
				}

			}
, 			{
				"patchline" : 				{
					"destination" : [ "obj-3", 0 ],
					"source" : [ "obj-6", 2 ]
				}

			}
, 			{
				"patchline" : 				{
					"destination" : [ "obj-3", 0 ],
					"source" : [ "obj-6", 1 ]
				}

			}
, 			{
				"patchline" : 				{
					"destination" : [ "obj-3", 0 ],
					"source" : [ "obj-6", 0 ]
				}

			}
, 			{
				"patchline" : 				{
					"destination" : [ "obj-17", 0 ],
					"source" : [ "obj-7", 0 ]
				}

			}
 ],
		"parameters" : 		{
			"obj-141::obj-103" : [ "rnbo~[1]", "rnbo~", 0 ],
			"obj-141::obj-81" : [ "live.gain~[3]", "live.gain~", 0 ],
			"obj-26::obj-18" : [ "js", "js", 0 ],
			"obj-2::obj-1" : [ "live.gain~[1]", "live.gain~[1]", 0 ],
			"parameterbanks" : 			{
				"0" : 				{
					"index" : 0,
					"name" : "",
					"parameters" : [ "-", "-", "-", "-", "-", "-", "-", "-" ]
				}

			}
,
			"inherited_shortname" : 1
		}
,
		"dependency_cache" : [ 			{
				"name" : "CSV_reader_V2.js",
				"bootpath" : "~/Desktop/MaxTest",
				"patcherrelativepath" : ".",
				"type" : "TEXT",
				"implicit" : 1
			}
, 			{
				"name" : "Display.maxpat",
				"bootpath" : "~/Desktop/MaxTest",
				"patcherrelativepath" : ".",
				"type" : "JSON",
				"implicit" : 1
			}
, 			{
				"name" : "Map_env.maxpat",
				"bootpath" : "~/Desktop/MaxTest",
				"patcherrelativepath" : ".",
				"type" : "JSON",
				"implicit" : 1
			}
, 			{
				"name" : "Map_richSoni.maxpat",
				"bootpath" : "~/Desktop/MaxTest",
				"patcherrelativepath" : ".",
				"type" : "JSON",
				"implicit" : 1
			}
, 			{
				"name" : "Map_simpleSoni.maxpat",
				"bootpath" : "~/Desktop/MaxTest",
				"patcherrelativepath" : ".",
				"type" : "JSON",
				"implicit" : 1
			}
, 			{
				"name" : "data.maxpat",
				"bootpath" : "~/Desktop/MaxTest",
				"patcherrelativepath" : ".",
				"type" : "JSON",
				"implicit" : 1
			}
, 			{
				"name" : "gizmo_loadme.maxpat",
				"bootpath" : "C74:/help/msp",
				"type" : "JSON",
				"implicit" : 1
			}
, 			{
				"name" : "jsui_textbutton.js",
				"bootpath" : "C74:/jsui",
				"type" : "TEXT",
				"implicit" : 1
			}
, 			{
				"name" : "pan4S.maxpat",
				"bootpath" : "~/Library/Application Support/Cycling '74/Max 8/Examples/spatialization/panning/lib",
				"patcherrelativepath" : "../../Library/Application Support/Cycling '74/Max 8/Examples/spatialization/panning/lib",
				"type" : "JSON",
				"implicit" : 1
			}
, 			{
				"name" : "spat4.maxpat",
				"bootpath" : "~/Library/Application Support/Cycling '74/Max 8/Examples/spatialization/quad-spatializer-folder/lib",
				"patcherrelativepath" : "../../Library/Application Support/Cycling '74/Max 8/Examples/spatialization/quad-spatializer-folder/lib",
				"type" : "JSON",
				"implicit" : 1
			}
, 			{
				"name" : "transratio.maxpat",
				"bootpath" : "~/Library/Application Support/Cycling '74/Max 8/Examples/max-tricks/notes-and-pitch/pitch-to-freq-ratio",
				"patcherrelativepath" : "../../Library/Application Support/Cycling '74/Max 8/Examples/max-tricks/notes-and-pitch/pitch-to-freq-ratio",
				"type" : "JSON",
				"implicit" : 1
			}
, 			{
				"name" : "untitled.maxsnap",
				"bootpath" : "~/Documents/Max 8/Snapshots",
				"patcherrelativepath" : "../../Documents/Max 8/Snapshots",
				"type" : "mx@s",
				"implicit" : 1
			}
, 			{
				"name" : "untitled_20230305.maxsnap",
				"bootpath" : "~/Documents/Max 8/Snapshots",
				"patcherrelativepath" : "../../Documents/Max 8/Snapshots",
				"type" : "mx@s",
				"implicit" : 1
			}
 ],
		"autosave" : 0,
		"styles" : [ 			{
				"name" : "Audiomix",
				"default" : 				{
					"bgfillcolor" : 					{
						"angle" : 270.0,
						"color" : [ 0.290196, 0.309804, 0.301961, 1.0 ],
						"color1" : [ 0.376471, 0.384314, 0.4, 1.0 ],
						"color2" : [ 0.290196, 0.309804, 0.301961, 1.0 ],
						"proportion" : 0.39,
						"type" : "gradient"
					}

				}
,
				"parentstyle" : "",
				"multi" : 0
			}
, 			{
				"name" : "button001",
				"default" : 				{
					"bgcolor" : [ 0.537254901960784, 0.364705882352941, 0.364705882352941, 1.0 ],
					"elementcolor" : [ 0.580392156862745, 0.545098039215686, 0.611764705882353, 1.0 ]
				}
,
				"parentstyle" : "",
				"multi" : 0
			}
, 			{
				"name" : "comment001",
				"parentstyle" : "",
				"multi" : 0
			}
, 			{
				"name" : "jpatcher001",
				"default" : 				{
					"textcolor" : [ 0.23921568627451, 0.211764705882353, 0.211764705882353, 1.0 ]
				}
,
				"parentstyle" : "",
				"multi" : 0
			}
, 			{
				"name" : "number001",
				"default" : 				{
					"fontsize" : [ 64.0 ]
				}
,
				"parentstyle" : "",
				"multi" : 0
			}
, 			{
				"name" : "rnbolight",
				"default" : 				{
					"accentcolor" : [ 0.443137254901961, 0.505882352941176, 0.556862745098039, 1.0 ],
					"bgcolor" : [ 0.796078431372549, 0.862745098039216, 0.925490196078431, 1.0 ],
					"bgfillcolor" : 					{
						"angle" : 270.0,
						"autogradient" : 0.0,
						"color" : [ 0.835294117647059, 0.901960784313726, 0.964705882352941, 1.0 ],
						"color1" : [ 0.031372549019608, 0.125490196078431, 0.211764705882353, 1.0 ],
						"color2" : [ 0.263682, 0.004541, 0.038797, 1.0 ],
						"proportion" : 0.39,
						"type" : "color"
					}
,
					"clearcolor" : [ 0.898039, 0.898039, 0.898039, 1.0 ],
					"color" : [ 0.815686274509804, 0.509803921568627, 0.262745098039216, 1.0 ],
					"editing_bgcolor" : [ 0.898039, 0.898039, 0.898039, 1.0 ],
					"elementcolor" : [ 0.337254901960784, 0.384313725490196, 0.462745098039216, 1.0 ],
					"fontname" : [ "Lato" ],
					"locked_bgcolor" : [ 0.898039, 0.898039, 0.898039, 1.0 ],
					"stripecolor" : [ 0.309803921568627, 0.698039215686274, 0.764705882352941, 1.0 ],
					"textcolor_inverse" : [ 0.0, 0.0, 0.0, 1.0 ]
				}
,
				"parentstyle" : "",
				"multi" : 0
			}
, 			{
				"name" : "rnbomonokai",
				"default" : 				{
					"accentcolor" : [ 0.501960784313725, 0.501960784313725, 0.501960784313725, 1.0 ],
					"bgcolor" : [ 0.0, 0.0, 0.0, 1.0 ],
					"bgfillcolor" : 					{
						"angle" : 270.0,
						"autogradient" : 0.0,
						"color" : [ 0.0, 0.0, 0.0, 1.0 ],
						"color1" : [ 0.031372549019608, 0.125490196078431, 0.211764705882353, 1.0 ],
						"color2" : [ 0.263682, 0.004541, 0.038797, 1.0 ],
						"proportion" : 0.39,
						"type" : "color"
					}
,
					"clearcolor" : [ 0.976470588235294, 0.96078431372549, 0.917647058823529, 1.0 ],
					"color" : [ 0.611764705882353, 0.125490196078431, 0.776470588235294, 1.0 ],
					"editing_bgcolor" : [ 0.976470588235294, 0.96078431372549, 0.917647058823529, 1.0 ],
					"elementcolor" : [ 0.749019607843137, 0.83921568627451, 1.0, 1.0 ],
					"fontname" : [ "Lato" ],
					"locked_bgcolor" : [ 0.976470588235294, 0.96078431372549, 0.917647058823529, 1.0 ],
					"stripecolor" : [ 0.796078431372549, 0.207843137254902, 1.0, 1.0 ],
					"textcolor" : [ 0.129412, 0.129412, 0.129412, 1.0 ]
				}
,
				"parentstyle" : "",
				"multi" : 0
			}
 ],
		"toolbaradditions" : [ "audiosolo", "audiomute" ]
	}

}
